<?xml version="1.0" encoding="UTF-8" standalone="no"?>
<!-- Created with Inkscape (http://www.inkscape.org/) -->

<svg
   xmlns:dc="http://purl.org/dc/elements/1.1/"
   xmlns:cc="http://creativecommons.org/ns#"
   xmlns:rdf="http://www.w3.org/1999/02/22-rdf-syntax-ns#"
   xmlns:svg="http://www.w3.org/2000/svg"
   xmlns="http://www.w3.org/2000/svg"
   xmlns:xlink="http://www.w3.org/1999/xlink"
   xmlns:sodipodi="http://sodipodi.sourceforge.net/DTD/sodipodi-0.dtd"
   xmlns:inkscape="http://www.inkscape.org/namespaces/inkscape"
   width="708.66138"
   height="708.66138"
   id="svg3122"
   version="1.1"
   inkscape:version="0.48.5 r10040"
   sodipodi:docname="seguridad.svg">
  <defs
     id="defs3">
    <linearGradient
       inkscape:collect="always"
       id="linearGradient3379">
      <stop
         style="stop-color:#000000;stop-opacity:1;"
         offset="0"
         id="stop3381" />
      <stop
         style="stop-color:#000000;stop-opacity:0;"
         offset="1"
         id="stop3383" />
    </linearGradient>
    <filter
       color-interpolation-filters="sRGB"
       inkscape:collect="always"
       id="filter5041-4"
       x="-1.2264509"
       width="3.4529016"
       y="-1.1133722"
       height="3.2267444">
      <feGaussianBlur
         inkscape:collect="always"
         stdDeviation="1.6884243"
         id="feGaussianBlur5043-0" />
    </filter>
    <filter
       color-interpolation-filters="sRGB"
       inkscape:collect="always"
       id="filter5037-7"
       x="-6.7454901"
       width="14.49098"
       y="-1.4392433"
       height="3.8784864">
      <feGaussianBlur
         inkscape:collect="always"
         stdDeviation="1.6884243"
         id="feGaussianBlur5039-0" />
    </filter>
    <filter
       color-interpolation-filters="sRGB"
       inkscape:collect="always"
       id="filter5033-34"
       x="-0.86112243"
       width="2.7222447"
       y="-1.1133722"
       height="3.2267444">
      <feGaussianBlur
         inkscape:collect="always"
         stdDeviation="1.6884243"
         id="feGaussianBlur5035-0" />
    </filter>
    <filter
       color-interpolation-filters="sRGB"
       inkscape:collect="always"
       id="filter5029-0"
       x="-1.1400793"
       width="3.2801588"
       y="-1.4049712"
       height="3.8099425">
      <feGaussianBlur
         inkscape:collect="always"
         stdDeviation="1.6884243"
         id="feGaussianBlur5031-53" />
    </filter>
    <filter
       color-interpolation-filters="sRGB"
       inkscape:collect="always"
       id="filter5025-1"
       x="-0.13484725"
       width="1.2696944"
       y="-0.14358816"
       height="1.2871763">
      <feGaussianBlur
         inkscape:collect="always"
         stdDeviation="1.6884243"
         id="feGaussianBlur5027-0" />
    </filter>
    <filter
       color-interpolation-filters="sRGB"
       inkscape:collect="always"
       id="filter3763-15-0-3">
      <feGaussianBlur
         inkscape:collect="always"
         stdDeviation="0.12971365"
         id="feGaussianBlur3765-27-0-4" />
    </filter>
    <linearGradient
       inkscape:collect="always"
       xlink:href="#linearGradient3379"
       id="linearGradient3385"
       x1="416.18286"
       y1="585.67163"
       x2="109.09647"
       y2="700.82904"
       gradientUnits="userSpaceOnUse" />
  </defs>
  <sodipodi:namedview
     inkscape:document-units="mm"
     id="base"
     pagecolor="#ffffff"
     bordercolor="#666666"
     borderopacity="1.0"
     inkscape:pageopacity="0.0"
     inkscape:pageshadow="2"
     inkscape:zoom="0.24748737"
     inkscape:cx="-176.00998"
     inkscape:cy="164.2961"
     inkscape:current-layer="layer1"
     showgrid="false"
     units="mm"
     inkscape:window-width="667"
     inkscape:window-height="730"
     inkscape:window-x="0"
     inkscape:window-y="0"
     inkscape:window-maximized="0" />
  <metadata
     id="metadata4">
    <rdf:RDF>
      <cc:Work
         rdf:about="">
        <dc:format>image/svg+xml</dc:format>
        <dc:type
           rdf:resource="http://purl.org/dc/dcmitype/StillImage" />
        <dc:title></dc:title>
      </cc:Work>
    </rdf:RDF>
  </metadata>
  <g
     inkscape:label="Layer 1"
     inkscape:groupmode="layer"
     id="layer1"
     transform="translate(0,-343.70077)">
    <path
       style="opacity:0.48600003000000003;fill:url(#linearGradient3385);fill-opacity:1;stroke:none"
       d="M 474.54028,922.14762 285.36127,1040.5531 C 16.445886,979.04102 -68.171864,685.98735 65.214948,511.76268 133.9227,483.23167 196.9755,407.89155 271.35198,426.2816 z"
       id="path4033-3"
       inkscape:connector-curvature="0"
       sodipodi:nodetypes="ccccc"
       inkscape:export-filename="C:\Users\alvaro\facilidad-w.png"
       inkscape:export-xdpi="85.433044"
       inkscape:export-ydpi="85.433044" />
    <rect
       style="fill:#ffffff;fill-opacity:1;stroke:none"
       id="rect2985-6-2-4"
       width="279.1684"
       height="503.53864"
       x="209.81982"
       y="423.73608"
       ry="28.184723"
       inkscape:export-filename="C:\Users\alvaro\facilidad-w.png"
       inkscape:export-xdpi="85.433044"
       inkscape:export-ydpi="85.433044" />
    <rect
       style="fill:#333333;fill-opacity:1;stroke:none"
       id="rect2987-1-4-3"
       width="236.24083"
       height="397.75211"
       x="226.63826"
       y="485.66815"
       ry="0"
       inkscape:export-filename="C:\Users\alvaro\facilidad-w.png"
       inkscape:export-xdpi="85.433044"
       inkscape:export-ydpi="85.433044" />
    <path
       sodipodi:type="arc"
       style="fill:#4d4d4d;fill-opacity:1;stroke:none"
       id="path2991-4-3-6"
       sodipodi:cx="353.17459"
       sodipodi:cy="169.74139"
       sodipodi:rx="7.7024131"
       sodipodi:ry="6.8185296"
       d="m 360.877,169.74139 a 7.7024131,6.8185296 0 1 1 -15.40482,0 7.7024131,6.8185296 0 1 1 15.40482,0 z"
       transform="matrix(1.4584442,0,0,1.4712729,-167.45199,200.53169)"
       inkscape:export-filename="C:\Users\alvaro\facilidad-w.png"
       inkscape:export-xdpi="85.433044"
       inkscape:export-ydpi="85.433044" />
    <path
       style="opacity:0.59591836;fill:#1a1a1a;fill-opacity:1;stroke:none;filter:url(#filter3763-15-0-3)"
       d="m 957.38926,-729.06453 c -2.1106,6.27072 1.281,9.61093 6.8817,11.77459 -7.2267,1.59453 -13.2037,-6.30696 -6.8817,-11.77459 z"
       id="path2993-2-3-8"
       inkscape:connector-curvature="0"
       sodipodi:nodetypes="ccc"
       transform="matrix(1.4584442,0,0,1.4712729,-1056.0776,1515.3501)"
       inkscape:export-filename="C:\Users\alvaro\facilidad-w.png"
       inkscape:export-xdpi="85.433044"
       inkscape:export-ydpi="85.433044" />
    <path
       style="fill:#000000;stroke:#fbfbfb;stroke-width:0.45342416px;stroke-linecap:butt;stroke-linejoin:miter;stroke-opacity:1;filter:url(#filter5025-1)"
       d="m 64.329478,-327.89363 c -0.27315,-4.67354 3.66972,-16.54837 11.41392,-12.77288 1.57828,0.0662 2.84875,-1.24001 4.90598,0.9614 1.54836,0.22054 3.34458,-0.57891 4.40537,1.64811 l 3.504278,-4.39497 c 4.60842,-4.04571 6.89112,1.15529 5.30647,5.21903 l -11.514038,13.59693 4.30524,-5.08168 c 2.693178,2.97577 2.477258,5.95152 0.10013,8.92728 -6.78785,6.43663 -9.18754,3.52517 -13.116,2.8842 -1.00686,-6.43448 -6.50606,-10.3064 -9.31135,-10.98742 z"
       id="path3836-4-4-8-2-6"
       inkscape:connector-curvature="0"
       sodipodi:nodetypes="ccccccccccc"
       transform="matrix(4.8587566,0,0,6.0167181,-85.57764,2738.0834)"
       inkscape:export-filename="C:\Users\alvaro\facilidad-w.png"
       inkscape:export-xdpi="85.433044"
       inkscape:export-ydpi="85.433044" />
    <path
       style="fill:#000000;stroke:#fbfbfb;stroke-width:0.45342416px;stroke-linecap:butt;stroke-linejoin:miter;stroke-opacity:1;filter:url(#filter5029-0)"
       d="m 72.339248,-337.71364 c 1.09783,-1.16018 2.08,-2.58479 3.55433,-2.8842"
       id="path3838-0-5-0-6-7"
       inkscape:connector-curvature="0"
       sodipodi:nodetypes="cc"
       transform="matrix(4.8587566,0,0,6.0167181,-85.57764,2738.0834)"
       inkscape:export-filename="C:\Users\alvaro\facilidad-w.png"
       inkscape:export-xdpi="85.433044"
       inkscape:export-ydpi="85.433044" />
    <path
       style="fill:#8eff67;stroke:#000000;stroke-width:2.45158576999999990px;stroke-linecap:butt;stroke-linejoin:miter;stroke-opacity:1;fill-opacity:1"
       d="m 237.37426,772.82541 c -1.32716,-28.1193 17.83037,-99.56681 55.45744,-76.85072 7.66845,0.39828 13.84135,-7.46092 23.83699,5.78436 7.52302,1.32697 16.25051,-3.483 21.40463,9.91612 l 17.02657,-26.44319 c 22.39124,-24.34203 33.4822,6.951 25.7828,31.40153 l -55.94409,81.80873 20.91842,-30.57484 c 13.08536,17.9042 12.0363,35.80841 0.48632,53.71272 -32.98046,38.72752 -44.63993,21.20995 -63.72736,17.35342 -4.89221,-38.71442 -31.61148,-62.01063 -45.24172,-66.10813 z"
       id="path3836-4-4-8-5"
       inkscape:connector-curvature="0"
       sodipodi:nodetypes="ccccccccccc"
       inkscape:export-filename="C:\Users\alvaro\facilidad-w.png"
       inkscape:export-xdpi="85.433044"
       inkscape:export-ydpi="85.433044" />
    <path
       style="fill:#000000;stroke:#fbfbfb;stroke-width:0.45342416px;stroke-linecap:butt;stroke-linejoin:miter;stroke-opacity:1;filter:url(#filter5033-34)"
       d="m 75.793458,-336.20287 c 1.43627,-1.4552 2.87805,-2.90031 4.70574,-3.63959"
       id="path3840-9-5-1-5-0"
       inkscape:connector-curvature="0"
       sodipodi:nodetypes="cc"
       transform="matrix(4.8587566,0,0,6.0167181,-85.57764,2738.0834)"
       inkscape:export-filename="C:\Users\alvaro\facilidad-w.png"
       inkscape:export-xdpi="85.433044"
       inkscape:export-ydpi="85.433044" />
    <path
       style="fill:#333333;stroke:#000000;stroke-width:2.45158577px;stroke-linecap:butt;stroke-linejoin:miter;stroke-opacity:1"
       d="m 276.29189,713.74116 c 5.33405,-6.98055 10.10623,-15.55189 17.26973,-17.35341"
       id="path3838-0-5-0-0"
       inkscape:connector-curvature="0"
       sodipodi:nodetypes="cc"
       inkscape:export-filename="C:\Users\alvaro\facilidad-w.png"
       inkscape:export-xdpi="85.433044"
       inkscape:export-ydpi="85.433044" />
    <path
       style="fill:#000000;stroke:#fbfbfb;stroke-width:0.45342416px;stroke-linecap:butt;stroke-linejoin:miter;stroke-opacity:1;filter:url(#filter5037-7)"
       d="m 83.903348,-325.42146 c -0.0433,0.93851 0.0746,1.87702 -0.60073,2.81552"
       id="path3842-4-1-2-3-4"
       inkscape:connector-curvature="0"
       sodipodi:nodetypes="cc"
       transform="matrix(4.8587566,0,0,6.0167181,-85.57764,2738.0834)"
       inkscape:export-filename="C:\Users\alvaro\facilidad-w.png"
       inkscape:export-xdpi="85.433044"
       inkscape:export-ydpi="85.433044" />
    <path
       style="fill:#333333;stroke:#000000;stroke-width:2.45158577px;stroke-linecap:butt;stroke-linejoin:miter;stroke-opacity:1"
       d="m 293.07497,722.83116 c 6.97847,-8.75565 13.98378,-17.45049 22.86402,-21.89847"
       id="path3840-9-5-1-54"
       inkscape:connector-curvature="0"
       sodipodi:nodetypes="cc"
       inkscape:export-filename="C:\Users\alvaro\facilidad-w.png"
       inkscape:export-xdpi="85.433044"
       inkscape:export-ydpi="85.433044" />
    <path
       style="fill:#000000;stroke:#fbfbfb;stroke-width:0.45342416px;stroke-linecap:butt;stroke-linejoin:miter;stroke-opacity:1;filter:url(#filter5041-4)"
       d="m 85.204928,-337.98833 c -1.10134,1.92425 -2.20268,2.78916 -3.30402,3.63959"
       id="path3844-8-7-5-9-9"
       inkscape:connector-curvature="0"
       sodipodi:nodetypes="cc"
       transform="matrix(4.8587566,0,0,6.0167181,-85.57764,2738.0834)"
       inkscape:export-filename="C:\Users\alvaro\facilidad-w.png"
       inkscape:export-xdpi="85.433044"
       inkscape:export-ydpi="85.433044" />
    <path
       style="fill:#333333;stroke:#000000;stroke-width:2.45158577px;stroke-linecap:butt;stroke-linejoin:miter;stroke-opacity:1"
       d="m 332.47892,787.69976 c -0.21054,5.64675 0.36263,11.2936 -2.91889,16.94024"
       id="path3842-4-1-2-5"
       inkscape:connector-curvature="0"
       sodipodi:nodetypes="cc"
       inkscape:export-filename="C:\Users\alvaro\facilidad-w.png"
       inkscape:export-xdpi="85.433044"
       inkscape:export-ydpi="85.433044" />
    <path
       style="fill:#333333;stroke:#000000;stroke-width:2.45158577px;stroke-linecap:butt;stroke-linejoin:miter;stroke-opacity:1"
       d="m 338.80301,712.08846 c -5.35113,11.57767 -10.70226,16.78157 -16.05339,21.89847"
       id="path3844-8-7-5-4"
       inkscape:connector-curvature="0"
       sodipodi:nodetypes="cc"
       inkscape:export-filename="C:\Users\alvaro\facilidad-w.png"
       inkscape:export-xdpi="85.433044"
       inkscape:export-ydpi="85.433044" />
    <path
       style="fill:#8eff67;fill-opacity:1;stroke:#000000;stroke-width:2.45158576999999990px;stroke-linecap:butt;stroke-linejoin:miter;stroke-opacity:1"
       d="m 234.66214,774.20378 c -3.45079,0.15587 -6.69726,1.69022 -9.72042,5.16583 -5.99852,9.2191 -9.38342,21.09339 -3.0956,42.68001 7.88698,13.46754 13.80152,29.10644 26.80823,36.77618 11.66435,5.71494 28.13184,9.25068 31.45174,-9.65534 5.0179,-21.58058 -6.09769,-34.24214 -9.1011,-45.87793 -4.58683,-7.69225 -6.68617,-11.41353 -7.55331,-11.93073 l 2.13274,3.56945 -2.13274,-3.87692 c -9.97711,-8.59967 -19.97108,-17.24883 -28.78954,-16.85055 z m 3.71481,21.09395 c 1.40171,0.047 2.96448,0.35708 4.7672,0.98401 l 16.84032,15.19011 -0.0654,0.38396 c 14.58868,22.54779 11.53324,32.86153 -3.71225,30.61134 -7.51038,-1.32978 -14.64082,-13.62833 -21.97925,-22.20102 -5.90156,-12.39137 -5.66384,-25.29961 4.14832,-24.9684 z"
       id="path3848-8-1-0-8"
       inkscape:connector-curvature="0"
       sodipodi:nodetypes="sccccccccsscccccs"
       inkscape:export-filename="C:\Users\alvaro\facilidad-w.png"
       inkscape:export-xdpi="85.433044"
       inkscape:export-ydpi="85.433044" />
  </g>
</svg>
