<?xml version="1.0" encoding="UTF-8" standalone="no"?>
<!-- Created with Inkscape (http://www.inkscape.org/) -->

<svg
   xmlns:dc="http://purl.org/dc/elements/1.1/"
   xmlns:cc="http://creativecommons.org/ns#"
   xmlns:rdf="http://www.w3.org/1999/02/22-rdf-syntax-ns#"
   xmlns:svg="http://www.w3.org/2000/svg"
   xmlns="http://www.w3.org/2000/svg"
   xmlns:xlink="http://www.w3.org/1999/xlink"
   xmlns:sodipodi="http://sodipodi.sourceforge.net/DTD/sodipodi-0.dtd"
   xmlns:inkscape="http://www.inkscape.org/namespaces/inkscape"
   width="708.66138"
   height="708.66138"
   id="svg3122"
   version="1.1"
   inkscape:version="0.48.5 r10040"
   sodipodi:docname="Documento nuevo 1">
  <defs
     id="defs3">
    <linearGradient
       inkscape:collect="always"
       id="linearGradient3186">
      <stop
         style="stop-color:#1a1a1a;stop-opacity:1;"
         offset="0"
         id="stop3188" />
      <stop
         style="stop-color:#1a1a1a;stop-opacity:0;"
         offset="1"
         id="stop3190" />
    </linearGradient>
    <linearGradient
       inkscape:collect="always"
       xlink:href="#linearGradient3186"
       id="linearGradient3192"
       x1="557.60419"
       y1="599.81378"
       x2="94.954346"
       y2="727.09302"
       gradientUnits="userSpaceOnUse" />
  </defs>
  <sodipodi:namedview
     inkscape:document-units="mm"
     id="base"
     pagecolor="#ffffff"
     bordercolor="#666666"
     borderopacity="1.0"
     inkscape:pageopacity="0.0"
     inkscape:pageshadow="2"
     inkscape:zoom="0.7"
     inkscape:cx="343.42027"
     inkscape:cy="261.50906"
     inkscape:current-layer="layer1"
     showgrid="false"
     units="mm"
     inkscape:window-width="667"
     inkscape:window-height="730"
     inkscape:window-x="0"
     inkscape:window-y="0"
     inkscape:window-maximized="0" />
  <metadata
     id="metadata4">
    <rdf:RDF>
      <cc:Work
         rdf:about="">
        <dc:format>image/svg+xml</dc:format>
        <dc:type
           rdf:resource="http://purl.org/dc/dcmitype/StillImage" />
        <dc:title></dc:title>
      </cc:Work>
    </rdf:RDF>
  </metadata>
  <g
     inkscape:label="Layer 1"
     inkscape:groupmode="layer"
     id="layer1"
     transform="translate(0,-343.70077)">
    <path
       style="opacity:0.48600003000000003;fill:url(#linearGradient3192);stroke:none;fill-opacity:1"
       d="M 303.75108,471.07458 28.528141,585.16198 c -55.195609,154.58 7.204551,425.13242 302.261619,465.62022 L 493.67973,919.74992 C 386.52731,770.19148 345.20305,620.63303 303.75108,471.07458 z"
       id="path3931"
       inkscape:connector-curvature="0"
       sodipodi:nodetypes="ccccc"
       inkscape:export-filename="C:\Users\alvaro\tiempo-w.png"
       inkscape:export-xdpi="64.711411"
       inkscape:export-ydpi="64.711411" />
    <path
       style="fill:#ffffff;stroke:#000000;stroke-width:12.39561367;stroke-linecap:butt;stroke-linejoin:miter;stroke-miterlimit:4;stroke-opacity:1;stroke-dasharray:none"
       d="m 227.31992,524.9404 c -4.05008,25.58956 -1.22491,51.17911 8.11744,76.76877 17.4213,37.00835 63.95733,77.35421 98.42283,116.31642 -24.27602,45.67735 -76.86723,64.0326 -99.43741,111.66368 l -9.13202,84.91102 c 23.87887,42.01838 200.07624,61.65873 266.85772,2.32629 l -6.08811,-89.56362 c -26.14507,-46.8731 -63.5772,-57.86954 -95.37876,-113.99007 35.27212,-38.24538 73.30572,-72.53379 101.46687,-120.969 6.27759,-49.61345 0.51015,-50.90016 0,-73.27933 -89.89054,51.90274 -177.61966,36.91498 -264.82856,5.81584 z"
       id="path3915"
       inkscape:connector-curvature="0"
       sodipodi:nodetypes="ccccccccccc"
       inkscape:export-filename="C:\Users\alvaro\tiempo-w.png"
       inkscape:export-xdpi="64.711411"
       inkscape:export-ydpi="64.711411" />
    <path
       style="fill:#000000;stroke:#000000;stroke-width:0.76046723px;stroke-linecap:butt;stroke-linejoin:miter;stroke-opacity:1"
       d="m 359.76208,813.66431 c -2.34665,7.65483 -6.08494,14.6316 -10.89666,20.66492 -32.75013,23.23224 -78.45309,30.55568 -98.16006,69.80799 61.15755,16.19188 121.74686,33.21134 217.39602,-0.82243 -6.67976,-29.58571 -65.76882,-47.15565 -98.65337,-70.73344 z"
       id="path3919"
       inkscape:connector-curvature="0"
       sodipodi:nodetypes="cccccc"
       inkscape:export-filename="C:\Users\alvaro\tiempo-w.png"
       inkscape:export-xdpi="64.711411"
       inkscape:export-ydpi="64.711411" />
    <path
       style="fill:#000000;stroke:#000000;stroke-width:0.76046723px;stroke-linecap:butt;stroke-linejoin:miter;stroke-opacity:1"
       d="m 269.42875,595.31181 c 51.39003,29.5895 106.18099,48.3823 182.13297,0 -30.46332,47.49833 -87.14697,56.35119 -91.26137,142.68424 0.78329,-72.706 -60.46203,-95.21911 -90.8716,-142.68424 z"
       id="path3917"
       inkscape:connector-curvature="0"
       sodipodi:nodetypes="cccc"
       inkscape:export-filename="C:\Users\alvaro\tiempo-w.png"
       inkscape:export-xdpi="64.711411"
       inkscape:export-ydpi="64.711411" />
    <path
       sodipodi:type="arc"
       style="fill:#000000;stroke:#000000;stroke-width:12.00378609;stroke-miterlimit:4;stroke-opacity:1;stroke-dasharray:none"
       id="path3913"
       sodipodi:cx="642.14288"
       sodipodi:cy="-1547.6378"
       sodipodi:rx="179.28572"
       sodipodi:ry="51.42857"
       d="m 821.4286,-1547.6378 a 179.28572,51.42857 0 1 1 -358.57144,0 179.28572,51.42857 0 1 1 358.57144,0 z"
       transform="matrix(0.73656251,0,0,0.80320002,-114.61789,1756.1544)"
       inkscape:export-filename="C:\Users\alvaro\tiempo-w.png"
       inkscape:export-xdpi="64.711411"
       inkscape:export-ydpi="64.711411" />
  </g>
</svg>
